# xmcd
#
# Track frame offsets: 
#        150
#        24932
#        47848
#        71774
#        95994
#        120526
#        141789
#        170884
#        194454
#        217135
#        240610
#        265047
#        286552
#
# Disc length: 4158 seconds
#
# Revision: 0
# Processed by: cddbd v1.5.2PL0 Copyright (c) Steve Scherf et al.
# Submitted via: ExactAudioCopy v1.0b6
#
DISCID=c6103c0d
DTITLE=Elito Revé - La Salsa tiene mi son
DYEAR=2015
DGENRE=Cubaine
TTITLE0=Mi salsa tiene Sandunga
TTITLE1=La ruñidera [ft Pablo Milanés]
TTITLE2=Muévete pa aquí [ft Gilberto Santa Rosa]
TTITLE3=Changüi campanero [ft Issac Delgado]
TTITLE4=Esa mujer [ft Israel Rojas]
TTITLE5=Pupu chan chan [ft Mandy Cantero]
TTITLE6=Yo no quiero que seas celosa [ft José Alberto 'El Canario']
TTITLE7=Espero que pase el tiempo [ft Haila Mompié]
TTITLE8=A mi lo mismo me da [ft Mónica Dueñas]
TTITLE9=Lo que tú esperabas [ft Sixto Llorente 'El Indio']
TTITLE10=Que cuento es ese [ft Mayito Rivera]
TTITLE11=1999 [ft Alexander Delgado]
TTITLE12=Rumberos latinoamericanos [ft Paulo FG and Muñequitos de Matanz
TTITLE12=as]
EXTD=
EXTT0=
EXTT1=
EXTT2=
EXTT3=
EXTT4=
EXTT5=
EXTT6=
EXTT7=
EXTT8=
EXTT9=
EXTT10=
EXTT11=
EXTT12=
PLAYORDER=
